<svg width="232" height="162" viewBox="0 0 232 162" fill="none" xmlns="http://www.w3.org/2000/svg">
<path d="M76.0576 27.9424L114.457 141.611L49.5915 144.966L76.0576 27.9424Z" fill="#F4C314"/>
<path d="M157.701 25.429L181.931 142.936L117.141 138.344L157.701 25.429Z" fill="#F4C314"/>
<path d="M31.353 27.3467L101.286 118.886L33.3983 135.768L31.353 27.3467Z" fill="#FFD231"/>
<path d="M200.709 25.2545L198.464 134.581L133.115 117.587L200.709 25.2545Z" fill="#FFD231"/>
<path d="M115.367 7.82353L147.843 123.324H82.8907L115.367 7.82353Z" fill="#FFD231"/>
<rect x="32.8667" y="117.824" width="166" height="33" fill="#FFD231"/>
<circle cx="196.64" cy="26.4791" r="10" fill="#FFD231"/>
<path d="M167.285 30.5071C167.285 36.0299 162.808 40.5071 157.285 40.5071C151.763 40.5071 147.285 36.0299 147.285 30.5071C147.285 24.9843 151.763 20.5071 157.285 20.5071C162.808 20.5071 167.285 24.9843 167.285 30.5071Z" fill="#F4C314"/>
<path d="M167.285 30.5071C167.285 36.0299 162.808 40.5071 157.285 40.5071C151.763 40.5071 147.285 36.0299 147.285 30.5071C147.285 24.9843 151.763 20.5071 157.285 20.5071C162.808 20.5071 167.285 24.9843 167.285 30.5071Z" fill="#F4C314"/>
<circle cx="76.5083" cy="30.7705" r="10" fill="#F4C314"/>
<circle cx="76.5083" cy="30.7705" r="10" fill="#F4C314"/>
<circle cx="114.883" cy="10.9616" r="10" fill="#FFD231"/>
<circle cx="33.6057" cy="28.6821" r="10" fill="#FFD231"/>
</svg>
