<svg width="184" height="162" viewBox="0 0 184 162" fill="none" xmlns="http://www.w3.org/2000/svg">
<path d="M53.0577 27.9424L91.4568 141.611L32.5002 145L53.0577 27.9424Z" fill="#F4C314"/>
<path d="M134.701 25.429L155.5 138.344L94.1411 138.344L134.701 25.429Z" fill="#F4C314"/>
<path d="M7.02368 27.7937L92.5 156.054L34.0359 156.054L7.02368 27.7937Z" fill="#FFD231"/>
<path d="M177.709 25.2545L154.104 155.163L97.0406 156.108L177.709 25.2545Z" fill="#FFD231"/>
<path d="M92.3667 7.82353L124.843 123.324H59.8907L92.3667 7.82353Z" fill="#FFD231"/>
<path d="M30 117H155V162H32.5L30 117Z" fill="#FFD231"/>
<circle cx="173.64" cy="26.4791" r="10" fill="#FFD231"/>
<path d="M144.285 30.5071C144.285 36.0299 139.808 40.5071 134.285 40.5071C128.763 40.5071 124.285 36.0299 124.285 30.5071C124.285 24.9843 128.763 20.5071 134.285 20.5071C139.808 20.5071 144.285 24.9843 144.285 30.5071Z" fill="#F4C314"/>
<path d="M144.285 30.5071C144.285 36.0299 139.808 40.5071 134.285 40.5071C128.763 40.5071 124.285 36.0299 124.285 30.5071C124.285 24.9843 128.763 20.5071 134.285 20.5071C139.808 20.5071 144.285 24.9843 144.285 30.5071Z" fill="#F4C314"/>
<circle cx="53.5083" cy="30.7705" r="10" fill="#F4C314"/>
<circle cx="53.5083" cy="30.7705" r="10" fill="#F4C314"/>
<circle cx="91.8828" cy="10.9616" r="10" fill="#FFD231"/>
<circle cx="10.6057" cy="28.6821" r="10" fill="#FFD231"/>
</svg>
