<svg width="469" height="200" viewBox="0 0 469 200" fill="none" xmlns="http://www.w3.org/2000/svg">
<ellipse cx="309.995" cy="148.244" rx="29.9949" ry="22.3562" fill="white"/>
<ellipse cx="354.181" cy="131.4" rx="39.3481" ry="29.4" fill="white"/>
<ellipse cx="397.399" cy="170.6" rx="39.3481" ry="29.4" fill="white"/>
<ellipse cx="339.99" cy="170.6" rx="39.3481" ry="29.4" fill="white"/>
<ellipse cx="436.747" cy="157.431" rx="32.2526" ry="26.0312" fill="white"/>
<ellipse cx="399.979" cy="141.2" rx="39.3481" ry="29.4" fill="white"/>
<g filter="url(#filter0_d)">
<path d="M430.851 115.366C427.89 153.13 401.593 156.306 369.658 153.802C337.723 151.298 314.972 146.131 315.204 106.298C319.959 68.6998 346.454 39.9493 378.389 42.4532C410.324 44.9572 429.83 77.6907 430.851 115.366Z" fill="#FFF6F6"/>
<path d="M402.308 83.0517C401.806 89.449 396.415 94.2442 390.266 93.762C384.117 93.2799 379.539 87.703 380.04 81.3058C380.542 74.9085 385.933 70.1133 392.082 70.5954C398.231 71.0776 402.81 76.6544 402.308 83.0517Z" fill="black"/>
<path d="M350.207 47.0106C349.171 60.2179 338.362 70.1428 326.064 69.1786C313.766 68.2143 306.432 56.8668 307.468 43.6595C308.503 30.4522 320.214 22.8537 332.512 23.818C344.81 24.7823 351.242 33.8034 350.207 47.0106Z" fill="#FFF6F6"/>
<path d="M433.369 46.3882C432.317 59.8018 421.495 69.894 409.197 68.9298C396.899 67.9655 387.782 56.3099 388.834 42.8962C389.885 29.4826 396.97 20.9771 409.267 21.9413C421.565 22.9056 434.42 32.9745 433.369 46.3882Z" fill="#FFF6F6"/>
<path d="M360.353 83.5216C359.852 89.9189 354.46 94.7141 348.311 94.2319C342.162 93.7498 337.584 88.1729 338.086 81.7757C338.587 75.3784 343.979 70.5832 350.128 71.0654C356.277 71.5475 360.855 77.1244 360.353 83.5216Z" fill="black"/>
<ellipse cx="344.188" cy="151.429" rx="11.5282" ry="6.37162" transform="rotate(4.48332 344.188 151.429)" fill="#FFF6F6"/>
<ellipse rx="11.5475" ry="6.36173" transform="matrix(0.991167 -0.132621 0.117086 0.993122 406.431 150.294)" fill="#FFF6F6"/>
<ellipse cx="351.792" cy="82.0985" rx="5.76408" ry="7.12123" transform="rotate(4.48332 351.792 82.0985)" fill="white"/>
<ellipse cx="390.155" cy="81.3469" rx="5.76408" ry="7.12122" transform="rotate(4.48332 390.155 81.3469)" fill="white"/>
<line y1="-0.5" x2="27.9049" y2="-0.5" transform="matrix(0.975521 -0.219908 0.198759 0.980048 402.836 94.7477)" stroke="black"/>
<line y1="-0.5" x2="19.5833" y2="-0.5" transform="matrix(0.981369 0.192133 -0.183597 0.983002 403.261 98.5405)" stroke="black"/>
<line y1="-0.5" x2="35.6162" y2="-0.5" transform="matrix(-0.990015 -0.14096 0.136209 -0.99068 337.241 95.6196)" stroke="black"/>
<line y1="-0.5" x2="22.6437" y2="-0.5" transform="matrix(-0.974954 0.222408 -0.201111 -0.979568 334.319 102.158)" stroke="black"/>
<path d="M374.742 97.75C373.51 99.4106 372.482 101.702 368.416 100.516" stroke="black"/>
<path d="M358.553 112.765C365.546 122.203 375.787 114.24 374.293 109.253C377.491 119.927 389.852 116.004 389.756 110.196" stroke="black"/>
<ellipse cx="398.379" cy="77.8563" rx="1.44102" ry="1.49921" transform="rotate(4.48332 398.379 77.8563)" fill="white"/>
<ellipse cx="400.424" cy="84.0319" rx="1.80127" ry="2.24881" transform="rotate(4.48332 400.424 84.0319)" fill="white"/>
<ellipse cx="343.877" cy="90.8766" rx="2.16153" ry="2.24881" transform="rotate(4.48332 343.877 90.8766)" fill="white"/>
<ellipse cx="342.191" cy="84.7291" rx="1.44102" ry="1.49921" transform="rotate(4.48332 342.191 84.7291)" fill="white"/>
<ellipse cx="397.31" cy="100.706" rx="4.32306" ry="4.12281" transform="rotate(4.48332 397.31 100.706)" fill="#FFD9F9"/>
<path d="M425.116 50.2525C424.647 56.237 419.121 60.685 412.773 60.1873C408.368 56.4584 401.661 54.4348 402.13 48.4502C402.599 42.4657 408.125 38.0177 414.473 38.5154C420.82 39.0131 425.585 44.268 425.116 50.2525Z" fill="#FFD9F9"/>
<path d="M341.808 52.7432C337.982 55.4509 335.812 63.1758 329.465 62.6781C323.118 62.1804 318.353 56.9255 318.822 50.9409C319.291 44.9564 324.817 40.5084 331.164 41.0061C337.512 41.5038 342.277 46.7587 341.808 52.7432Z" fill="#FFD9F9"/>
<ellipse cx="342.25" cy="102.404" rx="4.32306" ry="4.12282" transform="rotate(4.48332 342.25 102.404)" fill="#FFD9F9"/>
</g>
<ellipse cx="130.5" cy="62" rx="130.5" ry="62" fill="white"/>
<path d="M245 79L277.909 105.25H212.091L245 79Z" fill="white"/>
<path d="M43.7455 50.1C42.1589 50.1 40.7789 49.8133 39.6055 49.24C38.4322 48.6533 37.5322 47.8267 36.9055 46.76C36.2789 45.6933 35.9655 44.4533 35.9655 43.04C35.9655 41.08 36.3322 39.34 37.0655 37.82C37.8122 36.3 38.8189 35.1267 40.0855 34.3C41.3522 33.46 42.7589 33.04 44.3055 33.04C45.7455 33.04 46.8389 33.4133 47.5855 34.16C48.3322 34.8933 48.7055 35.8667 48.7055 37.08C48.7055 37.8933 48.5589 38.5467 48.2655 39.04C47.9855 39.5333 47.5789 39.78 47.0455 39.78C46.6722 39.78 46.3789 39.6933 46.1655 39.52C45.9522 39.3467 45.8455 39.0933 45.8455 38.76C45.8455 38.64 45.8722 38.42 45.9255 38.1C46.0055 37.7 46.0455 37.38 46.0455 37.14C46.0455 35.9267 45.3989 35.32 44.1055 35.32C43.2255 35.32 42.3855 35.6067 41.5855 36.18C40.7855 36.7533 40.1389 37.6 39.6455 38.72C39.1522 39.8267 38.9055 41.1467 38.9055 42.68C38.9055 44.28 39.3522 45.52 40.2455 46.4C41.1389 47.2667 42.4589 47.7 44.2055 47.7C45.0722 47.7 45.9455 47.5933 46.8255 47.38C47.7189 47.1533 48.7055 46.8133 49.7855 46.36C49.9855 46.28 50.1522 46.24 50.2855 46.24C50.4989 46.24 50.6589 46.32 50.7655 46.48C50.8722 46.64 50.9255 46.8467 50.9255 47.1C50.9255 47.9133 50.4855 48.5133 49.6055 48.9C48.6589 49.3133 47.6722 49.62 46.6455 49.82C45.6322 50.0067 44.6655 50.1 43.7455 50.1ZM56.9365 45.54C57.1098 45.54 57.2432 45.62 57.3365 45.78C57.4432 45.94 57.4965 46.16 57.4965 46.44C57.4965 46.9733 57.3698 47.3867 57.1165 47.68C56.5432 48.3867 55.9165 48.9667 55.2365 49.42C54.5698 49.8733 53.8098 50.1 52.9565 50.1C51.7832 50.1 50.9098 49.5667 50.3365 48.5C49.7765 47.4333 49.4965 46.0533 49.4965 44.36C49.4965 42.7333 49.7032 40.88 50.1165 38.8C50.5432 36.72 51.1632 34.9333 51.9765 33.44C52.8032 31.9467 53.7832 31.2 54.9165 31.2C55.5565 31.2 56.0565 31.5 56.4165 32.1C56.7898 32.6867 56.9765 33.5333 56.9765 34.64C56.9765 36.2267 56.5365 38.0667 55.6565 40.16C54.7765 42.2533 53.5832 44.3267 52.0765 46.38C52.1698 46.9267 52.3232 47.32 52.5365 47.56C52.7498 47.7867 53.0298 47.9 53.3765 47.9C53.9232 47.9 54.4032 47.7467 54.8165 47.44C55.2298 47.12 55.7565 46.58 56.3965 45.82C56.5565 45.6333 56.7365 45.54 56.9365 45.54ZM54.4765 33.18C54.1698 33.18 53.8232 33.7333 53.4365 34.84C53.0498 35.9467 52.7098 37.32 52.4165 38.96C52.1232 40.6 51.9632 42.1733 51.9365 43.68C52.8832 42.12 53.6365 40.56 54.1965 39C54.7565 37.4267 55.0365 35.9933 55.0365 34.7C55.0365 33.6867 54.8498 33.18 54.4765 33.18ZM58.4999 39.36C57.9399 39.36 57.5199 39.2333 57.2399 38.98C56.9599 38.7133 56.8199 38.3467 56.8199 37.88C56.8199 37.4133 56.9999 37.0267 57.3599 36.72C57.7333 36.4 58.1933 36.24 58.7399 36.24C59.2333 36.24 59.6333 36.36 59.9399 36.6C60.2466 36.84 60.3999 37.18 60.3999 37.62C60.3999 38.1533 60.2266 38.58 59.8799 38.9C59.5333 39.2067 59.0733 39.36 58.4999 39.36ZM58.3399 50.1C57.4733 50.1 56.8399 49.7933 56.4399 49.18C56.0533 48.5667 55.8599 47.7533 55.8599 46.74C55.8599 46.14 55.9333 45.3733 56.0799 44.44C56.2399 43.4933 56.4399 42.6133 56.6799 41.8C56.7999 41.3733 56.9599 41.08 57.1599 40.92C57.3599 40.76 57.6799 40.68 58.1199 40.68C58.7999 40.68 59.1399 40.9067 59.1399 41.36C59.1399 41.6933 59.0133 42.4667 58.7599 43.68C58.4399 45.1467 58.2799 46.14 58.2799 46.66C58.2799 47.06 58.3333 47.3667 58.4399 47.58C58.5466 47.7933 58.7266 47.9 58.9799 47.9C59.2199 47.9 59.5199 47.7333 59.8799 47.4C60.2399 47.0667 60.7199 46.54 61.3199 45.82C61.4799 45.6333 61.6599 45.54 61.8599 45.54C62.0333 45.54 62.1666 45.62 62.2599 45.78C62.3666 45.94 62.4199 46.16 62.4199 46.44C62.4199 46.9733 62.2933 47.3867 62.0399 47.68C60.7199 49.2933 59.4866 50.1 58.3399 50.1ZM64.6218 50.1C63.3151 50.1 62.2951 49.7333 61.5618 49C60.8418 48.2533 60.4818 47.2733 60.4818 46.06C60.4818 44.98 60.6951 44.0333 61.1218 43.22C61.5485 42.4067 62.1018 41.78 62.7818 41.34C63.4618 40.9 64.1751 40.68 64.9218 40.68C65.6551 40.68 66.2218 40.9 66.6218 41.34C67.0351 41.7667 67.2418 42.32 67.2418 43C67.2418 43.56 67.1151 44.0333 66.8618 44.42C66.6218 44.8067 66.3018 45 65.9018 45C65.6485 45 65.4418 44.94 65.2818 44.82C65.1351 44.7 65.0618 44.5333 65.0618 44.32C65.0618 44.2267 65.0751 44.12 65.1018 44C65.1285 43.88 65.1485 43.7933 65.1618 43.74C65.2285 43.54 65.2618 43.3533 65.2618 43.18C65.2618 43.0067 65.2151 42.8733 65.1218 42.78C65.0418 42.6867 64.9218 42.64 64.7618 42.64C64.4551 42.64 64.1685 42.78 63.9018 43.06C63.6351 43.3267 63.4218 43.6933 63.2618 44.16C63.1018 44.6267 63.0218 45.14 63.0218 45.7C63.0218 47.2467 63.6951 48.02 65.0418 48.02C65.5885 48.02 66.1751 47.84 66.8018 47.48C67.4418 47.1067 68.0685 46.5533 68.6818 45.82C68.8418 45.6333 69.0218 45.54 69.2218 45.54C69.3951 45.54 69.5285 45.62 69.6218 45.78C69.7285 45.94 69.7818 46.16 69.7818 46.44C69.7818 46.9467 69.6551 47.36 69.4018 47.68C68.7751 48.4533 68.0218 49.0533 67.1418 49.48C66.2751 49.8933 65.4351 50.1 64.6218 50.1ZM76.6651 47.92C77.2117 48.0267 77.4851 48.3267 77.4851 48.82C77.4851 49.1533 77.3317 49.4533 77.0251 49.72C76.7317 49.9733 76.3051 50.1 75.7451 50.1C74.7851 50.1 73.9984 49.8067 73.3851 49.22C72.7851 48.62 72.4851 47.84 72.4851 46.88C72.4851 46.36 72.7517 45.9867 73.2851 45.76C73.8717 45.5067 74.2917 45.24 74.5451 44.96C74.7984 44.6667 74.9251 44.3133 74.9251 43.9C74.9251 43.66 74.8717 43.48 74.7651 43.36C74.6717 43.24 74.5517 43.18 74.4051 43.18C74.0451 43.18 73.6451 43.44 73.2051 43.96C72.7784 44.48 72.3784 45.1533 72.0051 45.98C71.6317 46.7933 71.3384 47.6333 71.1251 48.5C70.9784 49.1267 70.8051 49.5533 70.6051 49.78C70.4184 49.9933 70.1184 50.1 69.7051 50.1C69.2917 50.1 68.9851 49.9533 68.7851 49.66C68.5984 49.3533 68.4717 48.8867 68.4051 48.26C68.3384 47.6333 68.3051 46.7133 68.3051 45.5C68.3051 43.4467 68.5117 41.3067 68.9251 39.08C69.3517 36.8533 69.9717 34.9867 70.7851 33.48C71.6117 31.96 72.5984 31.2 73.7451 31.2C74.3584 31.2 74.8517 31.4667 75.2251 32C75.6117 32.52 75.8051 33.2 75.8051 34.04C75.8051 35.3867 75.4117 36.7867 74.6251 38.24C73.8384 39.68 72.5584 41.3667 70.7851 43.3C70.7451 43.9933 70.7251 44.7067 70.7251 45.44C71.3651 43.7733 72.0984 42.5667 72.9251 41.82C73.7517 41.06 74.5251 40.68 75.2451 40.68C75.9117 40.68 76.4451 40.9067 76.8451 41.36C77.2584 41.8133 77.4651 42.3733 77.4651 43.04C77.4651 43.7733 77.2784 44.4467 76.9051 45.06C76.5317 45.6733 75.8917 46.22 74.9851 46.7C75.0651 47.1 75.2251 47.38 75.4651 47.54C75.7184 47.6867 76.1184 47.8133 76.6651 47.92ZM73.3251 33.18C73.0851 33.18 72.8184 33.5267 72.5251 34.22C72.2317 34.9 71.9451 35.8267 71.6651 37C71.3984 38.16 71.1784 39.4267 71.0051 40.8C71.8317 39.8267 72.5117 38.7667 73.0451 37.62C73.5917 36.4733 73.8651 35.4333 73.8651 34.5C73.8651 34.0733 73.8184 33.7467 73.7251 33.52C73.6317 33.2933 73.4984 33.18 73.3251 33.18ZM94.0877 43.86C94.2611 43.86 94.3944 43.9467 94.4877 44.12C94.5811 44.2933 94.6277 44.5133 94.6277 44.78C94.6277 45.42 94.4344 45.8 94.0477 45.92C93.2477 46.2 92.3677 46.36 91.4077 46.4C91.1544 47.52 90.6544 48.42 89.9077 49.1C89.1611 49.7667 88.3144 50.1 87.3677 50.1C86.5677 50.1 85.8811 49.9067 85.3077 49.52C84.7477 49.1333 84.3211 48.62 84.0277 47.98C83.7344 47.34 83.5877 46.6467 83.5877 45.9C83.5877 44.8867 83.7811 43.9867 84.1677 43.2C84.5544 42.4 85.0877 41.78 85.7677 41.34C86.4477 40.8867 87.2011 40.66 88.0277 40.66C89.0411 40.66 89.8544 41.0133 90.4677 41.72C91.0944 42.4133 91.4611 43.2733 91.5677 44.3C92.1944 44.26 92.9411 44.1267 93.8077 43.9C93.9144 43.8733 94.0077 43.86 94.0877 43.86ZM87.5277 47.98C87.9544 47.98 88.3211 47.8067 88.6277 47.46C88.9477 47.1133 89.1611 46.6133 89.2677 45.96C88.8544 45.68 88.5344 45.3133 88.3077 44.86C88.0944 44.4067 87.9877 43.9267 87.9877 43.42C87.9877 43.2067 88.0077 42.9933 88.0477 42.78H87.9477C87.4144 42.78 86.9677 43.04 86.6077 43.56C86.2611 44.0667 86.0877 44.7867 86.0877 45.72C86.0877 46.4533 86.2277 47.0133 86.5077 47.4C86.8011 47.7867 87.1411 47.98 87.5277 47.98ZM94.3312 50.1C93.8245 50.1 93.4645 49.8333 93.2512 49.3C93.0512 48.7667 92.9512 47.9133 92.9512 46.74C92.9512 45.0067 93.1978 43.36 93.6912 41.8C93.8112 41.4133 94.0045 41.1333 94.2712 40.96C94.5512 40.7733 94.9378 40.68 95.4312 40.68C95.6978 40.68 95.8845 40.7133 95.9912 40.78C96.0978 40.8467 96.1512 40.9733 96.1512 41.16C96.1512 41.3733 96.0512 41.8533 95.8512 42.6C95.7178 43.1333 95.6112 43.6 95.5312 44C95.4512 44.4 95.3845 44.8933 95.3312 45.48C95.7712 44.3333 96.2645 43.4 96.8112 42.68C97.3578 41.96 97.8912 41.4467 98.4112 41.14C98.9445 40.8333 99.4312 40.68 99.8712 40.68C100.298 40.68 100.618 40.7933 100.831 41.02C101.058 41.2333 101.171 41.5533 101.171 41.98C101.171 42.3267 101.098 42.98 100.951 43.94C100.818 44.7533 100.711 45.5267 100.631 46.26C100.551 46.98 100.511 47.7867 100.511 48.68C100.511 49.1867 100.405 49.5533 100.191 49.78C99.9912 49.9933 99.6578 50.1 99.1912 50.1C98.7512 50.1 98.4312 49.9867 98.2312 49.76C98.0312 49.5333 97.9312 49.1933 97.9312 48.74C97.9312 48.2067 98.0245 47.3267 98.2112 46.1C98.3712 45.0333 98.4512 44.3533 98.4512 44.06C98.4512 43.8467 98.3778 43.74 98.2312 43.74C98.0578 43.74 97.8112 43.9667 97.4912 44.42C97.1845 44.86 96.8645 45.4467 96.5312 46.18C96.2112 46.9133 95.9512 47.6867 95.7512 48.5C95.6045 49.1267 95.4312 49.5533 95.2312 49.78C95.0445 49.9933 94.7445 50.1 94.3312 50.1ZM118.132 45.58C118.305 45.58 118.438 45.6667 118.532 45.84C118.638 46 118.692 46.2067 118.692 46.46C118.692 46.7667 118.645 47.0067 118.552 47.18C118.458 47.3533 118.312 47.5067 118.112 47.64L114.272 50.22C113.765 52.98 113.098 55.1467 112.272 56.72C111.458 58.3067 110.418 59.1 109.152 59.1C108.472 59.1 107.918 58.8867 107.492 58.46C107.065 58.0467 106.852 57.5 106.852 56.82C106.852 56.1933 106.992 55.5533 107.272 54.9C107.565 54.2467 108.098 53.4933 108.872 52.64C109.658 51.8 110.765 50.8333 112.192 49.74L112.252 49.28C112.345 48.7867 112.452 48.08 112.572 47.16C112.305 48.12 111.932 48.8533 111.452 49.36C110.972 49.8533 110.465 50.1 109.932 50.1C109.332 50.1 108.838 49.8267 108.452 49.28C108.078 48.72 107.892 48.0267 107.892 47.2C107.892 46.2 107.958 45.2867 108.092 44.46C108.225 43.62 108.445 42.7333 108.752 41.8C108.885 41.4 109.072 41.1133 109.312 40.94C109.552 40.7667 109.932 40.68 110.452 40.68C110.745 40.68 110.945 40.7267 111.052 40.82C111.172 40.9133 111.232 41.0533 111.232 41.24C111.232 41.3467 111.158 41.7067 111.012 42.32C110.878 42.8133 110.772 43.26 110.692 43.66C110.585 44.2067 110.492 44.7333 110.412 45.24C110.332 45.7333 110.292 46.14 110.292 46.46C110.292 46.9667 110.432 47.22 110.712 47.22C110.912 47.22 111.158 47.02 111.452 46.62C111.758 46.22 112.078 45.6133 112.412 44.8C112.758 43.9867 113.092 42.9867 113.412 41.8C113.518 41.4 113.678 41.1133 113.892 40.94C114.118 40.7667 114.452 40.68 114.892 40.68C115.198 40.68 115.412 40.72 115.532 40.8C115.652 40.88 115.712 41.0133 115.712 41.2C115.712 41.5333 115.538 42.68 115.192 44.64L114.672 47.86C115.698 47.0867 116.698 46.38 117.672 45.74C117.845 45.6333 117.998 45.58 118.132 45.58ZM109.372 57.16C109.705 57.16 110.078 56.7733 110.492 56C110.905 55.2267 111.318 53.94 111.732 52.14C110.705 53.0067 109.958 53.7933 109.492 54.5C109.038 55.22 108.812 55.8467 108.812 56.38C108.812 56.6067 108.852 56.7933 108.932 56.94C109.025 57.0867 109.172 57.16 109.372 57.16ZM127.662 43.86C127.835 43.86 127.969 43.9467 128.062 44.12C128.155 44.2933 128.202 44.5133 128.202 44.78C128.202 45.42 128.009 45.8 127.622 45.92C126.822 46.2 125.942 46.36 124.982 46.4C124.729 47.52 124.229 48.42 123.482 49.1C122.735 49.7667 121.889 50.1 120.942 50.1C120.142 50.1 119.455 49.9067 118.882 49.52C118.322 49.1333 117.895 48.62 117.602 47.98C117.309 47.34 117.162 46.6467 117.162 45.9C117.162 44.8867 117.355 43.9867 117.742 43.2C118.129 42.4 118.662 41.78 119.342 41.34C120.022 40.8867 120.775 40.66 121.602 40.66C122.615 40.66 123.429 41.0133 124.042 41.72C124.669 42.4133 125.035 43.2733 125.142 44.3C125.769 44.26 126.515 44.1267 127.382 43.9C127.489 43.8733 127.582 43.86 127.662 43.86ZM121.102 47.98C121.529 47.98 121.895 47.8067 122.202 47.46C122.522 47.1133 122.735 46.6133 122.842 45.96C122.429 45.68 122.109 45.3133 121.882 44.86C121.669 44.4067 121.562 43.9267 121.562 43.42C121.562 43.2067 121.582 42.9933 121.622 42.78H121.522C120.989 42.78 120.542 43.04 120.182 43.56C119.835 44.0667 119.662 44.7867 119.662 45.72C119.662 46.4533 119.802 47.0133 120.082 47.4C120.375 47.7867 120.715 47.98 121.102 47.98ZM128.525 50.1C127.925 50.1 127.432 49.8267 127.045 49.28C126.672 48.72 126.485 48.0267 126.485 47.2C126.485 46.2 126.552 45.2867 126.685 44.46C126.819 43.62 127.039 42.7333 127.345 41.8C127.479 41.4 127.665 41.1133 127.905 40.94C128.145 40.7667 128.525 40.68 129.045 40.68C129.339 40.68 129.539 40.7267 129.645 40.82C129.765 40.9133 129.825 41.0533 129.825 41.24C129.825 41.3467 129.752 41.7067 129.605 42.32C129.472 42.8133 129.365 43.26 129.285 43.66C129.019 45.06 128.885 45.9933 128.885 46.46C128.885 46.74 128.919 46.94 128.985 47.06C129.052 47.1667 129.159 47.22 129.305 47.22C129.505 47.22 129.752 47.02 130.045 46.62C130.352 46.22 130.672 45.6133 131.005 44.8C131.352 43.9867 131.685 42.9867 132.005 41.8C132.112 41.4 132.272 41.1133 132.485 40.94C132.712 40.7667 133.045 40.68 133.485 40.68C133.792 40.68 134.005 40.72 134.125 40.8C134.245 40.8667 134.305 41 134.305 41.2C134.305 41.5333 134.139 42.4467 133.805 43.94C133.432 45.6467 133.245 46.7 133.245 47.1C133.245 47.3533 133.299 47.5533 133.405 47.7C133.512 47.8333 133.652 47.9 133.825 47.9C134.092 47.9 134.405 47.74 134.765 47.42C135.139 47.0867 135.632 46.5533 136.245 45.82C136.405 45.6333 136.585 45.54 136.785 45.54C136.959 45.54 137.092 45.62 137.185 45.78C137.292 45.94 137.345 46.16 137.345 46.44C137.345 46.9733 137.219 47.3867 136.965 47.68C136.392 48.3867 135.772 48.9667 135.105 49.42C134.452 49.8733 133.705 50.1 132.865 50.1C132.225 50.1 131.752 49.8533 131.445 49.36C131.152 48.8667 131.005 48.1733 131.005 47.28C130.779 48.1867 130.439 48.8867 129.985 49.38C129.532 49.86 129.045 50.1 128.525 50.1ZM143.804 43.42C144.097 43.42 144.344 43.5267 144.544 43.74C144.757 43.94 144.864 44.1933 144.864 44.5C144.864 44.6733 144.824 44.86 144.744 45.06C144.53 45.5533 144.23 45.9667 143.844 46.3C143.457 46.6333 143.03 46.8 142.564 46.8C142.19 46.8 141.87 46.6667 141.604 46.4C141.35 46.1333 141.224 45.7733 141.224 45.32C141.224 45.0667 141.237 44.7933 141.264 44.5C141.29 44.2867 141.304 44.14 141.304 44.06C141.304 43.9533 141.277 43.8733 141.224 43.82C141.184 43.7667 141.13 43.74 141.064 43.74C140.877 43.74 140.624 43.9667 140.304 44.42C139.984 44.86 139.664 45.4467 139.344 46.18C139.024 46.9133 138.764 47.6867 138.564 48.5C138.417 49.14 138.25 49.5667 138.064 49.78C137.877 49.9933 137.57 50.1 137.144 50.1C136.637 50.1 136.277 49.8333 136.064 49.3C135.864 48.7667 135.764 47.9133 135.764 46.74C135.764 45.0067 136.01 43.36 136.504 41.8C136.624 41.4133 136.817 41.1333 137.084 40.96C137.364 40.7733 137.75 40.68 138.244 40.68C138.51 40.68 138.697 40.7133 138.804 40.78C138.91 40.8467 138.964 40.9733 138.964 41.16C138.964 41.3733 138.864 41.8533 138.664 42.6C138.53 43.1333 138.424 43.6 138.344 44C138.264 44.4 138.197 44.8933 138.144 45.48C138.584 44.3333 139.077 43.4 139.624 42.68C140.17 41.96 140.704 41.4467 141.224 41.14C141.744 40.8333 142.217 40.68 142.644 40.68C143.03 40.68 143.324 40.7933 143.524 41.02C143.737 41.2333 143.844 41.5533 143.844 41.98C143.844 42.2333 143.77 42.7133 143.624 43.42H143.804ZM158.899 44.4C159.272 44.4 159.459 44.68 159.459 45.24C159.459 46.2933 158.632 46.82 156.979 46.82C156.659 46.82 156.199 46.76 155.599 46.64C155.772 47.4667 155.912 48.3867 156.019 49.4C156.139 50.4 156.199 51.2267 156.199 51.88C156.199 53.32 155.966 54.42 155.499 55.18C155.032 55.94 154.419 56.32 153.659 56.32C152.699 56.32 152.012 55.64 151.599 54.28C151.199 52.92 150.999 50.8667 150.999 48.12C150.999 45.56 151.272 42.9667 151.819 40.34C152.379 37.7 153.139 35.52 154.099 33.8C155.072 32.0667 156.139 31.2 157.299 31.2C157.926 31.2 158.412 31.48 158.759 32.04C159.119 32.6 159.299 33.3533 159.299 34.3C159.299 37.4333 157.426 40.8467 153.679 44.54C153.546 45.8467 153.479 46.9933 153.479 47.98C153.479 49.3533 153.526 50.76 153.619 52.2C153.712 53.6533 153.866 54.38 154.079 54.38C154.479 54.38 154.679 53.6867 154.679 52.3C154.679 51.26 154.606 50.2533 154.459 49.28C154.326 48.3067 154.139 47.28 153.899 46.2C153.886 46.0267 153.939 45.8067 154.059 45.54C154.192 45.2733 154.352 45.04 154.539 44.84C154.726 44.64 154.892 44.54 155.039 44.54C155.306 44.54 155.626 44.5533 155.999 44.58C156.119 44.5933 156.259 44.6 156.419 44.6C156.952 44.6 157.546 44.5533 158.199 44.46C158.306 44.4467 158.419 44.4333 158.539 44.42C158.659 44.4067 158.779 44.4 158.899 44.4ZM156.879 33.18C156.639 33.18 156.339 33.5867 155.979 34.4C155.632 35.2133 155.286 36.2933 154.939 37.64C154.592 38.9733 154.292 40.3867 154.039 41.88C155.106 40.6667 155.926 39.4067 156.499 38.1C157.072 36.78 157.366 35.5467 157.379 34.4C157.379 33.5867 157.212 33.18 156.879 33.18ZM160.508 50.1C159.681 50.1 159.021 49.8 158.528 49.2C158.035 48.6 157.788 47.8133 157.788 46.84C157.788 45.7733 158.035 44.7667 158.528 43.82C159.021 42.86 159.675 42.0933 160.488 41.52C161.315 40.9333 162.188 40.64 163.108 40.64C163.401 40.64 163.595 40.7 163.688 40.82C163.795 40.9267 163.881 41.1267 163.948 41.42C164.228 41.3667 164.521 41.34 164.828 41.34C165.481 41.34 165.808 41.5733 165.808 42.04C165.808 42.32 165.708 42.9867 165.508 44.04C165.201 45.5733 165.048 46.64 165.048 47.24C165.048 47.44 165.095 47.6 165.188 47.72C165.295 47.84 165.428 47.9 165.588 47.9C165.841 47.9 166.148 47.74 166.508 47.42C166.868 47.0867 167.355 46.5533 167.968 45.82C168.128 45.6333 168.308 45.54 168.508 45.54C168.681 45.54 168.815 45.62 168.908 45.78C169.015 45.94 169.068 46.16 169.068 46.44C169.068 46.9733 168.941 47.3867 168.688 47.68C168.141 48.36 167.561 48.9333 166.948 49.4C166.335 49.8667 165.741 50.1 165.168 50.1C164.728 50.1 164.321 49.9533 163.948 49.66C163.588 49.3533 163.315 48.94 163.128 48.42C162.435 49.54 161.561 50.1 160.508 50.1ZM161.228 48.08C161.521 48.08 161.801 47.9067 162.068 47.56C162.335 47.2133 162.528 46.7533 162.648 46.18L163.388 42.5C162.828 42.5133 162.308 42.7267 161.828 43.14C161.361 43.54 160.988 44.0733 160.708 44.74C160.428 45.4067 160.288 46.1133 160.288 46.86C160.288 47.2733 160.368 47.58 160.528 47.78C160.701 47.98 160.935 48.08 161.228 48.08ZM177.538 43.92C177.578 43.9067 177.644 43.9 177.738 43.9C177.938 43.9 178.091 43.9667 178.198 44.1C178.304 44.2333 178.358 44.4133 178.358 44.64C178.358 45.0533 178.278 45.38 178.118 45.62C177.958 45.8467 177.718 46.0133 177.398 46.12C176.784 46.32 176.131 46.42 175.438 46.42C174.851 46.42 174.298 46.34 173.778 46.18C173.391 46.8067 172.964 47.4533 172.498 48.12C171.964 48.88 171.504 49.4 171.118 49.68C170.731 49.96 170.291 50.1 169.798 50.1C169.251 50.1 168.818 49.8867 168.498 49.46C168.191 49.0333 167.998 48.36 167.918 47.44C167.758 45.5733 167.678 43.94 167.678 42.54V41.84C167.691 41.4 167.811 41.0933 168.038 40.92C168.264 40.7467 168.604 40.66 169.058 40.66C169.404 40.66 169.658 40.74 169.818 40.9C169.991 41.0467 170.078 41.3 170.078 41.66C170.078 43.1933 170.171 45.1867 170.358 47.64C171.158 46.4533 171.758 45.5067 172.158 44.8C171.958 44.4133 171.858 43.9533 171.858 43.42C171.858 42.9667 171.958 42.5267 172.158 42.1C172.358 41.6733 172.631 41.3267 172.978 41.06C173.324 40.7933 173.718 40.66 174.158 40.66C174.544 40.66 174.858 40.8 175.098 41.08C175.338 41.3467 175.458 41.74 175.458 42.26C175.458 42.86 175.298 43.5467 174.978 44.32C175.484 44.2933 176.158 44.1933 176.998 44.02L177.538 43.92ZM186.822 43.86C186.995 43.86 187.129 43.9467 187.222 44.12C187.315 44.2933 187.362 44.5133 187.362 44.78C187.362 45.42 187.169 45.8 186.782 45.92C185.982 46.2 185.102 46.36 184.142 46.4C183.889 47.52 183.389 48.42 182.642 49.1C181.895 49.7667 181.049 50.1 180.102 50.1C179.302 50.1 178.615 49.9067 178.042 49.52C177.482 49.1333 177.055 48.62 176.762 47.98C176.469 47.34 176.322 46.6467 176.322 45.9C176.322 44.8867 176.515 43.9867 176.902 43.2C177.289 42.4 177.822 41.78 178.502 41.34C179.182 40.8867 179.935 40.66 180.762 40.66C181.775 40.66 182.589 41.0133 183.202 41.72C183.829 42.4133 184.195 43.2733 184.302 44.3C184.929 44.26 185.675 44.1267 186.542 43.9C186.649 43.8733 186.742 43.86 186.822 43.86ZM180.262 47.98C180.689 47.98 181.055 47.8067 181.362 47.46C181.682 47.1133 181.895 46.6133 182.002 45.96C181.589 45.68 181.269 45.3133 181.042 44.86C180.829 44.4067 180.722 43.9267 180.722 43.42C180.722 43.2067 180.742 42.9933 180.782 42.78H180.682C180.149 42.78 179.702 43.04 179.342 43.56C178.995 44.0667 178.822 44.7867 178.822 45.72C178.822 46.4533 178.962 47.0133 179.242 47.4C179.535 47.7867 179.875 47.98 180.262 47.98ZM187.686 50.1C187.086 50.1 186.592 49.8267 186.206 49.28C185.832 48.72 185.646 48.0267 185.646 47.2C185.646 46.2 185.712 45.2867 185.846 44.46C185.979 43.62 186.199 42.7333 186.506 41.8C186.639 41.4 186.826 41.1133 187.066 40.94C187.306 40.7667 187.686 40.68 188.206 40.68C188.499 40.68 188.699 40.7267 188.806 40.82C188.926 40.9133 188.986 41.0533 188.986 41.24C188.986 41.3467 188.912 41.7067 188.766 42.32C188.632 42.8133 188.526 43.26 188.446 43.66C188.179 45.06 188.046 45.9933 188.046 46.46C188.046 46.74 188.079 46.94 188.146 47.06C188.212 47.1667 188.319 47.22 188.466 47.22C188.666 47.22 188.912 47.02 189.206 46.62C189.512 46.22 189.832 45.6133 190.166 44.8C190.512 43.9867 190.846 42.9867 191.166 41.8C191.272 41.4 191.432 41.1133 191.646 40.94C191.872 40.7667 192.206 40.68 192.646 40.68C192.952 40.68 193.166 40.72 193.286 40.8C193.406 40.8667 193.466 41 193.466 41.2C193.466 41.5333 193.299 42.4467 192.966 43.94C192.592 45.6467 192.406 46.7 192.406 47.1C192.406 47.3533 192.459 47.5533 192.566 47.7C192.672 47.8333 192.812 47.9 192.986 47.9C193.252 47.9 193.566 47.74 193.926 47.42C194.299 47.0867 194.792 46.5533 195.406 45.82C195.566 45.6333 195.746 45.54 195.946 45.54C196.119 45.54 196.252 45.62 196.346 45.78C196.452 45.94 196.506 46.16 196.506 46.44C196.506 46.9733 196.379 47.3867 196.126 47.68C195.552 48.3867 194.932 48.9667 194.266 49.42C193.612 49.8733 192.866 50.1 192.026 50.1C191.386 50.1 190.912 49.8533 190.606 49.36C190.312 48.8667 190.166 48.1733 190.166 47.28C189.939 48.1867 189.599 48.8867 189.146 49.38C188.692 49.86 188.206 50.1 187.686 50.1ZM196.304 50.1C195.797 50.1 195.437 49.8333 195.224 49.3C195.024 48.7667 194.924 47.9133 194.924 46.74C194.924 45.0067 195.17 43.36 195.664 41.8C195.784 41.4133 195.977 41.1333 196.244 40.96C196.524 40.7733 196.91 40.68 197.404 40.68C197.67 40.68 197.857 40.7133 197.964 40.78C198.07 40.8467 198.124 40.9733 198.124 41.16C198.124 41.3733 198.024 41.8533 197.824 42.6C197.69 43.1333 197.584 43.6 197.504 44C197.424 44.4 197.357 44.8933 197.304 45.48C197.744 44.3333 198.237 43.4 198.784 42.68C199.33 41.96 199.864 41.4467 200.384 41.14C200.917 40.8333 201.404 40.68 201.844 40.68C202.71 40.68 203.144 41.1133 203.144 41.98C203.144 42.1533 203.084 42.5733 202.964 43.24C202.857 43.7733 202.804 44.1067 202.804 44.24C202.804 44.7067 202.97 44.94 203.304 44.94C203.677 44.94 204.157 44.6467 204.744 44.06C204.917 43.8867 205.097 43.8 205.284 43.8C205.457 43.8 205.59 43.88 205.684 44.04C205.79 44.1867 205.844 44.3867 205.844 44.64C205.844 45.1333 205.71 45.52 205.444 45.8C205.07 46.1867 204.63 46.52 204.124 46.8C203.63 47.0667 203.104 47.2 202.544 47.2C201.837 47.2 201.297 47.02 200.924 46.66C200.564 46.3 200.384 45.8133 200.384 45.2C200.384 45 200.404 44.8 200.444 44.6C200.47 44.3333 200.484 44.1533 200.484 44.06C200.484 43.8467 200.41 43.74 200.264 43.74C200.064 43.74 199.797 43.9667 199.464 44.42C199.144 44.86 198.824 45.4467 198.504 46.18C198.184 46.9133 197.924 47.6867 197.724 48.5C197.577 49.1267 197.404 49.5533 197.204 49.78C197.017 49.9933 196.717 50.1 196.304 50.1ZM206.605 39.36C206.045 39.36 205.625 39.2333 205.345 38.98C205.065 38.7133 204.925 38.3467 204.925 37.88C204.925 37.4133 205.105 37.0267 205.465 36.72C205.839 36.4 206.299 36.24 206.845 36.24C207.339 36.24 207.739 36.36 208.045 36.6C208.352 36.84 208.505 37.18 208.505 37.62C208.505 38.1533 208.332 38.58 207.985 38.9C207.639 39.2067 207.179 39.36 206.605 39.36ZM206.445 50.1C205.579 50.1 204.945 49.7933 204.545 49.18C204.159 48.5667 203.965 47.7533 203.965 46.74C203.965 46.14 204.039 45.3733 204.185 44.44C204.345 43.4933 204.545 42.6133 204.785 41.8C204.905 41.3733 205.065 41.08 205.265 40.92C205.465 40.76 205.785 40.68 206.225 40.68C206.905 40.68 207.245 40.9067 207.245 41.36C207.245 41.6933 207.119 42.4667 206.865 43.68C206.545 45.1467 206.385 46.14 206.385 46.66C206.385 47.06 206.439 47.3667 206.545 47.58C206.652 47.7933 206.832 47.9 207.085 47.9C207.325 47.9 207.625 47.7333 207.985 47.4C208.345 47.0667 208.825 46.54 209.425 45.82C209.585 45.6333 209.765 45.54 209.965 45.54C210.139 45.54 210.272 45.62 210.365 45.78C210.472 45.94 210.525 46.16 210.525 46.44C210.525 46.9733 210.399 47.3867 210.145 47.68C208.825 49.2933 207.592 50.1 206.445 50.1ZM217.827 45.54C218.001 45.54 218.134 45.62 218.227 45.78C218.334 45.94 218.387 46.16 218.387 46.44C218.387 46.9733 218.261 47.3867 218.007 47.68C217.434 48.3867 216.807 48.9667 216.127 49.42C215.447 49.8733 214.667 50.1 213.787 50.1C211.067 50.1 209.707 48.1867 209.707 44.36C209.707 43.7733 209.727 43.18 209.767 42.58H208.987C208.587 42.58 208.314 42.5067 208.167 42.36C208.034 42.2133 207.967 41.98 207.967 41.66C207.967 40.9133 208.267 40.54 208.867 40.54H210.007C210.234 39.0733 210.581 37.7333 211.047 36.52C211.514 35.3067 212.074 34.34 212.727 33.62C213.394 32.9 214.107 32.54 214.867 32.54C215.427 32.54 215.867 32.7867 216.187 33.28C216.507 33.7733 216.667 34.3933 216.667 35.14C216.667 37.2067 215.801 39.0067 214.067 40.54H216.307C216.521 40.54 216.674 40.5867 216.767 40.68C216.861 40.7733 216.907 40.9467 216.907 41.2C216.907 42.12 216.154 42.58 214.647 42.58H212.207C212.181 43.2467 212.167 43.7667 212.167 44.14C212.167 45.5267 212.327 46.5 212.647 47.06C212.981 47.62 213.501 47.9 214.207 47.9C214.781 47.9 215.287 47.7267 215.727 47.38C216.167 47.0333 216.687 46.5133 217.287 45.82C217.447 45.6333 217.627 45.54 217.827 45.54ZM214.327 34.46C214.127 34.46 213.901 34.7133 213.647 35.22C213.407 35.7133 213.174 36.4067 212.947 37.3C212.734 38.18 212.554 39.16 212.407 40.24C213.194 39.56 213.781 38.8 214.167 37.96C214.567 37.1067 214.767 36.3333 214.767 35.64C214.767 34.8533 214.621 34.46 214.327 34.46ZM223.919 46.14C224.092 46.14 224.225 46.22 224.319 46.38C224.425 46.54 224.479 46.76 224.479 47.04C224.479 47.52 224.365 47.9333 224.139 48.28C223.765 48.8533 223.272 49.3 222.659 49.62C222.059 49.94 221.339 50.1 220.499 50.1C219.219 50.1 218.225 49.72 217.519 48.96C216.812 48.1867 216.459 47.1467 216.459 45.84C216.459 44.92 216.652 44.0667 217.039 43.28C217.425 42.48 217.959 41.8467 218.639 41.38C219.332 40.9133 220.112 40.68 220.979 40.68C221.752 40.68 222.372 40.9133 222.839 41.38C223.305 41.8333 223.539 42.4533 223.539 43.24C223.539 44.16 223.205 44.9533 222.539 45.62C221.885 46.2733 220.765 46.7933 219.179 47.18C219.499 47.7933 220.039 48.1 220.799 48.1C221.345 48.1 221.792 47.9733 222.139 47.72C222.499 47.4667 222.912 47.04 223.379 46.44C223.539 46.24 223.719 46.14 223.919 46.14ZM220.639 42.64C220.145 42.64 219.725 42.9267 219.379 43.5C219.045 44.0733 218.879 44.7667 218.879 45.58V45.62C219.665 45.4333 220.285 45.1533 220.739 44.78C221.192 44.4067 221.419 43.9733 221.419 43.48C221.419 43.2267 221.345 43.0267 221.199 42.88C221.065 42.72 220.879 42.64 220.639 42.64ZM39.558 80.54C39.7314 80.54 39.8647 80.62 39.958 80.78C40.0647 80.94 40.118 81.16 40.118 81.44C40.118 81.9733 39.9914 82.3867 39.738 82.68C39.1247 83.3867 38.4914 83.9667 37.838 84.42C37.198 84.8733 36.4647 85.1 35.638 85.1C34.958 85.1 34.4447 84.9067 34.098 84.52C33.7514 84.12 33.578 83.5467 33.578 82.8C33.578 82.4267 33.6714 81.76 33.858 80.8C34.0314 79.96 34.118 79.38 34.118 79.06C34.118 78.8467 34.0447 78.74 33.898 78.74C33.7247 78.74 33.478 78.9667 33.158 79.42C32.838 79.86 32.518 80.4467 32.198 81.18C31.878 81.9133 31.618 82.6867 31.418 83.5C31.1647 84.5667 30.538 85.1 29.538 85.1C29.138 85.1 28.8714 84.96 28.738 84.68C28.618 84.3867 28.558 83.8667 28.558 83.12C28.558 82.6933 28.5647 82.3533 28.578 82.1L28.598 80.5C28.598 78.4467 28.8047 76.3067 29.218 74.08C29.6447 71.8533 30.2647 69.9867 31.078 68.48C31.9047 66.96 32.8914 66.2 34.038 66.2C34.6514 66.2 35.1447 66.4667 35.518 67C35.9047 67.52 36.098 68.2 36.098 69.04C36.098 70.3867 35.7047 71.7867 34.918 73.24C34.1314 74.68 32.8514 76.3667 31.078 78.3C31.038 78.9933 31.018 79.7067 31.018 80.44C31.458 79.3067 31.9447 78.3867 32.478 77.68C33.0247 76.96 33.558 76.4467 34.078 76.14C34.6114 75.8333 35.098 75.68 35.538 75.68C36.4047 75.68 36.838 76.1133 36.838 76.98C36.838 77.5 36.6914 78.44 36.398 79.8C36.1447 80.96 36.018 81.7267 36.018 82.1C36.018 82.6333 36.2114 82.9 36.598 82.9C36.8647 82.9 37.178 82.74 37.538 82.42C37.9114 82.0867 38.4047 81.5533 39.018 80.82C39.178 80.6333 39.358 80.54 39.558 80.54ZM33.618 68.18C33.378 68.18 33.1114 68.5267 32.818 69.22C32.5247 69.9 32.238 70.8267 31.958 72C31.6914 73.16 31.4714 74.4267 31.298 75.8C32.1247 74.8267 32.8047 73.7667 33.338 72.62C33.8847 71.4733 34.158 70.4333 34.158 69.5C34.158 69.0733 34.1114 68.7467 34.018 68.52C33.9247 68.2933 33.7914 68.18 33.618 68.18ZM40.9571 85.1C40.1304 85.1 39.4704 84.8 38.9771 84.2C38.4838 83.6 38.2371 82.8133 38.2371 81.84C38.2371 80.7733 38.4838 79.7667 38.9771 78.82C39.4704 77.86 40.1238 77.0933 40.9371 76.52C41.7638 75.9333 42.6371 75.64 43.5571 75.64C43.8504 75.64 44.0438 75.7 44.1371 75.82C44.2438 75.9267 44.3304 76.1267 44.3971 76.42C44.6771 76.3667 44.9704 76.34 45.2771 76.34C45.9304 76.34 46.2571 76.5733 46.2571 77.04C46.2571 77.32 46.1571 77.9867 45.9571 79.04C45.6504 80.5733 45.4971 81.64 45.4971 82.24C45.4971 82.44 45.5438 82.6 45.6371 82.72C45.7438 82.84 45.8771 82.9 46.0371 82.9C46.2904 82.9 46.5971 82.74 46.9571 82.42C47.3171 82.0867 47.8038 81.5533 48.4171 80.82C48.5771 80.6333 48.7571 80.54 48.9571 80.54C49.1304 80.54 49.2638 80.62 49.3571 80.78C49.4638 80.94 49.5171 81.16 49.5171 81.44C49.5171 81.9733 49.3904 82.3867 49.1371 82.68C48.5904 83.36 48.0104 83.9333 47.3971 84.4C46.7838 84.8667 46.1904 85.1 45.6171 85.1C45.1771 85.1 44.7704 84.9533 44.3971 84.66C44.0371 84.3533 43.7638 83.94 43.5771 83.42C42.8838 84.54 42.0104 85.1 40.9571 85.1ZM41.6771 83.08C41.9704 83.08 42.2504 82.9067 42.5171 82.56C42.7838 82.2133 42.9771 81.7533 43.0971 81.18L43.8371 77.5C43.2771 77.5133 42.7571 77.7267 42.2771 78.14C41.8104 78.54 41.4371 79.0733 41.1571 79.74C40.8771 80.4067 40.7371 81.1133 40.7371 81.86C40.7371 82.2733 40.8171 82.58 40.9771 82.78C41.1504 82.98 41.3838 83.08 41.6771 83.08ZM49.3116 85.1C48.805 85.1 48.445 84.8333 48.2316 84.3C48.0316 83.7667 47.9316 82.9133 47.9316 81.74C47.9316 80.0067 48.1783 78.36 48.6716 76.8C48.7916 76.4133 48.985 76.1333 49.2516 75.96C49.5316 75.7733 49.9183 75.68 50.4116 75.68C50.6783 75.68 50.865 75.7133 50.9716 75.78C51.0783 75.8467 51.1316 75.9733 51.1316 76.16C51.1316 76.3733 51.0316 76.8533 50.8316 77.6C50.6983 78.1333 50.5916 78.6 50.5116 79C50.4316 79.3867 50.365 79.8733 50.3116 80.46C50.6716 79.42 51.0983 78.54 51.5916 77.82C52.0983 77.1 52.6116 76.5667 53.1316 76.22C53.665 75.86 54.165 75.68 54.6316 75.68C55.0983 75.68 55.425 75.7867 55.6116 76C55.8116 76.2133 55.9116 76.54 55.9116 76.98C55.9116 77.4067 55.785 78.18 55.5316 79.3C55.425 79.78 55.3516 80.14 55.3116 80.38C55.9783 78.74 56.7183 77.5467 57.5316 76.8C58.345 76.0533 59.105 75.68 59.8116 75.68C60.6783 75.68 61.1116 76.1133 61.1116 76.98C61.1116 77.5 60.965 78.44 60.6716 79.8C60.4183 80.96 60.2916 81.7267 60.2916 82.1C60.2916 82.6333 60.485 82.9 60.8716 82.9C61.1383 82.9 61.4516 82.74 61.8116 82.42C62.185 82.0867 62.6783 81.5533 63.2916 80.82C63.4516 80.6333 63.6316 80.54 63.8316 80.54C64.005 80.54 64.1383 80.62 64.2316 80.78C64.3383 80.94 64.3916 81.16 64.3916 81.44C64.3916 81.9733 64.265 82.3867 64.0116 82.68C63.4383 83.3867 62.8183 83.9667 62.1516 84.42C61.4983 84.8733 60.7516 85.1 59.9116 85.1C59.2316 85.1 58.7183 84.9067 58.3716 84.52C58.025 84.12 57.8516 83.5467 57.8516 82.8C57.8516 82.4267 57.945 81.76 58.1316 80.8C58.305 79.96 58.3916 79.38 58.3916 79.06C58.3916 78.8467 58.3183 78.74 58.1716 78.74C57.9983 78.74 57.7516 78.9667 57.4316 79.42C57.1116 79.86 56.7916 80.4467 56.4716 81.18C56.1516 81.9133 55.8916 82.6867 55.6916 83.5C55.545 84.14 55.3716 84.5667 55.1716 84.78C54.985 84.9933 54.6783 85.1 54.2516 85.1C53.8116 85.1 53.4783 84.8933 53.2516 84.48C53.0383 84.0533 52.9316 83.54 52.9316 82.94C52.9316 82.4333 52.9983 81.7 53.1316 80.74C53.2383 79.8867 53.2916 79.3267 53.2916 79.06C53.2916 78.8467 53.2183 78.74 53.0716 78.74C52.8716 78.74 52.6183 78.98 52.3116 79.46C52.005 79.94 51.705 80.5533 51.4116 81.3C51.1316 82.0467 50.905 82.78 50.7316 83.5C50.585 84.1267 50.4116 84.5533 50.2116 84.78C50.025 84.9933 49.725 85.1 49.3116 85.1ZM66.4945 85.54C65.8011 85.54 65.2678 85.38 64.8945 85.06C64.5345 84.74 64.3545 84.38 64.3545 83.98C64.3545 83.6333 64.4811 83.3333 64.7345 83.08C64.9878 82.8267 65.3611 82.7 65.8545 82.7C66.0278 82.7 66.2278 82.72 66.4545 82.76C66.6945 82.7867 66.8745 82.8067 66.9945 82.82C66.9811 82.4733 66.9011 82.1467 66.7545 81.84C66.6211 81.5333 66.4478 81.24 66.2345 80.96C66.0211 80.6667 65.8211 80.4133 65.6345 80.2C65.2211 80.9867 64.8078 81.64 64.3945 82.16C63.9945 82.68 63.5545 83.1733 63.0745 83.64C62.8345 83.88 62.5811 84 62.3145 84C62.1011 84 61.9278 83.9267 61.7945 83.78C61.6611 83.62 61.5945 83.4267 61.5945 83.2C61.5945 82.9333 61.6878 82.6867 61.8745 82.46L62.1345 82.14C62.8678 81.2333 63.4211 80.4867 63.7945 79.9C64.0211 79.5133 64.2878 79 64.5945 78.36C64.9011 77.7067 65.2011 77.0333 65.4945 76.34C65.7478 75.7533 66.2745 75.46 67.0745 75.46C67.4478 75.46 67.7078 75.4933 67.8545 75.56C68.0011 75.6267 68.0745 75.7333 68.0745 75.88C68.0745 75.96 68.0478 76.0867 67.9945 76.26C67.9411 76.4333 67.8678 76.6067 67.7745 76.78C67.5345 77.26 67.4145 77.6667 67.4145 78C67.4145 78.2 67.4811 78.42 67.6145 78.66C67.7611 78.9 67.9811 79.2 68.2745 79.56C68.7011 80.12 69.0211 80.6 69.2345 81C69.4611 81.3867 69.5745 81.8133 69.5745 82.28C69.5745 82.4133 69.5611 82.6 69.5345 82.84C70.1878 82.5867 70.9545 81.9133 71.8345 80.82C71.9945 80.6333 72.1745 80.54 72.3745 80.54C72.5478 80.54 72.6811 80.62 72.7745 80.78C72.8811 80.94 72.9345 81.16 72.9345 81.44C72.9345 81.9467 72.8078 82.36 72.5545 82.68C71.8878 83.5067 71.2478 84.0733 70.6345 84.38C70.0345 84.6733 69.2878 84.8333 68.3945 84.86C67.8611 85.3133 67.2278 85.54 66.4945 85.54ZM80.2296 80.54C80.4029 80.54 80.5363 80.62 80.6296 80.78C80.7363 80.94 80.7896 81.16 80.7896 81.44C80.7896 81.9733 80.6629 82.3867 80.4096 82.68C79.8363 83.3867 79.2096 83.9667 78.5296 84.42C77.8496 84.8733 77.0696 85.1 76.1896 85.1C73.4696 85.1 72.1096 83.1867 72.1096 79.36C72.1096 78.7733 72.1296 78.18 72.1696 77.58H71.3896C70.9896 77.58 70.7163 77.5067 70.5696 77.36C70.4363 77.2133 70.3696 76.98 70.3696 76.66C70.3696 75.9133 70.6696 75.54 71.2696 75.54H72.4096C72.6363 74.0733 72.9829 72.7333 73.4496 71.52C73.9163 70.3067 74.4763 69.34 75.1296 68.62C75.7963 67.9 76.5096 67.54 77.2696 67.54C77.8296 67.54 78.2696 67.7867 78.5896 68.28C78.9096 68.7733 79.0696 69.3933 79.0696 70.14C79.0696 72.2067 78.2029 74.0067 76.4696 75.54H78.7096C78.9229 75.54 79.0763 75.5867 79.1696 75.68C79.2629 75.7733 79.3096 75.9467 79.3096 76.2C79.3096 77.12 78.5563 77.58 77.0496 77.58H74.6096C74.5829 78.2467 74.5696 78.7667 74.5696 79.14C74.5696 80.5267 74.7296 81.5 75.0496 82.06C75.3829 82.62 75.9029 82.9 76.6096 82.9C77.1829 82.9 77.6896 82.7267 78.1296 82.38C78.5696 82.0333 79.0896 81.5133 79.6896 80.82C79.8496 80.6333 80.0296 80.54 80.2296 80.54ZM76.7296 69.46C76.5296 69.46 76.3029 69.7133 76.0496 70.22C75.8096 70.7133 75.5763 71.4067 75.3496 72.3C75.1363 73.18 74.9563 74.16 74.8096 75.24C75.5963 74.56 76.1829 73.8 76.5696 72.96C76.9696 72.1067 77.1696 71.3333 77.1696 70.64C77.1696 69.8533 77.0229 69.46 76.7296 69.46ZM88.0812 80.54C88.2545 80.54 88.3878 80.62 88.4812 80.78C88.5878 80.94 88.6412 81.16 88.6412 81.44C88.6412 81.9733 88.5145 82.3867 88.2612 82.68C87.7678 83.28 87.0678 83.8333 86.1612 84.34C85.2678 84.8467 84.3078 85.1 83.2812 85.1C81.8812 85.1 80.7945 84.72 80.0212 83.96C79.2478 83.2 78.8612 82.16 78.8612 80.84C78.8612 79.92 79.0545 79.0667 79.4412 78.28C79.8278 77.48 80.3612 76.8467 81.0412 76.38C81.7345 75.9133 82.5145 75.68 83.3812 75.68C84.1545 75.68 84.7745 75.9133 85.2412 76.38C85.7078 76.8333 85.9412 77.4533 85.9412 78.24C85.9412 79.16 85.6078 79.9533 84.9412 80.62C84.2878 81.2733 83.1745 81.7933 81.6012 82.18C81.9345 82.7933 82.5678 83.1 83.5012 83.1C84.1012 83.1 84.7812 82.8933 85.5412 82.48C86.3145 82.0533 86.9812 81.5 87.5412 80.82C87.7012 80.6333 87.8812 80.54 88.0812 80.54ZM83.0412 77.64C82.5478 77.64 82.1278 77.9267 81.7812 78.5C81.4478 79.0733 81.2812 79.7667 81.2812 80.58V80.62C82.0678 80.4333 82.6878 80.1533 83.1412 79.78C83.5945 79.4067 83.8212 78.9733 83.8212 78.48C83.8212 78.2267 83.7478 78.0267 83.6012 77.88C83.4678 77.72 83.2812 77.64 83.0412 77.64ZM95.0927 78.42C95.3861 78.42 95.6327 78.5267 95.8327 78.74C96.0461 78.94 96.1527 79.1933 96.1527 79.5C96.1527 79.6733 96.1127 79.86 96.0327 80.06C95.8194 80.5533 95.5194 80.9667 95.1327 81.3C94.7461 81.6333 94.3194 81.8 93.8527 81.8C93.4794 81.8 93.1594 81.6667 92.8927 81.4C92.6394 81.1333 92.5127 80.7733 92.5127 80.32C92.5127 80.0667 92.5261 79.7933 92.5527 79.5C92.5794 79.2867 92.5927 79.14 92.5927 79.06C92.5927 78.9533 92.5661 78.8733 92.5127 78.82C92.4727 78.7667 92.4194 78.74 92.3527 78.74C92.1661 78.74 91.9127 78.9667 91.5927 79.42C91.2727 79.86 90.9527 80.4467 90.6327 81.18C90.3127 81.9133 90.0527 82.6867 89.8527 83.5C89.7061 84.14 89.5394 84.5667 89.3527 84.78C89.1661 84.9933 88.8594 85.1 88.4327 85.1C87.9261 85.1 87.5661 84.8333 87.3527 84.3C87.1527 83.7667 87.0527 82.9133 87.0527 81.74C87.0527 80.0067 87.2994 78.36 87.7927 76.8C87.9127 76.4133 88.1061 76.1333 88.3727 75.96C88.6527 75.7733 89.0394 75.68 89.5327 75.68C89.7994 75.68 89.9861 75.7133 90.0927 75.78C90.1994 75.8467 90.2527 75.9733 90.2527 76.16C90.2527 76.3733 90.1527 76.8533 89.9527 77.6C89.8194 78.1333 89.7127 78.6 89.6327 79C89.5527 79.4 89.4861 79.8933 89.4327 80.48C89.8727 79.3333 90.3661 78.4 90.9127 77.68C91.4594 76.96 91.9927 76.4467 92.5127 76.14C93.0327 75.8333 93.5061 75.68 93.9327 75.68C94.3194 75.68 94.6127 75.7933 94.8127 76.02C95.0261 76.2333 95.1327 76.5533 95.1327 76.98C95.1327 77.2333 95.0594 77.7133 94.9127 78.42H95.0927ZM111.128 80.54C111.301 80.54 111.435 80.62 111.528 80.78C111.635 80.94 111.688 81.16 111.688 81.44C111.688 81.9733 111.561 82.3867 111.308 82.68C110.735 83.3867 110.108 83.9667 109.428 84.42C108.748 84.8733 107.968 85.1 107.088 85.1C104.368 85.1 103.008 83.1867 103.008 79.36C103.008 78.7733 103.028 78.18 103.068 77.58H102.288C101.888 77.58 101.615 77.5067 101.468 77.36C101.335 77.2133 101.268 76.98 101.268 76.66C101.268 75.9133 101.568 75.54 102.168 75.54H103.308C103.535 74.0733 103.881 72.7333 104.348 71.52C104.815 70.3067 105.375 69.34 106.028 68.62C106.695 67.9 107.408 67.54 108.168 67.54C108.728 67.54 109.168 67.7867 109.488 68.28C109.808 68.7733 109.968 69.3933 109.968 70.14C109.968 72.2067 109.101 74.0067 107.368 75.54H109.608C109.821 75.54 109.975 75.5867 110.068 75.68C110.161 75.7733 110.208 75.9467 110.208 76.2C110.208 77.12 109.455 77.58 107.948 77.58H105.508C105.481 78.2467 105.468 78.7667 105.468 79.14C105.468 80.5267 105.628 81.5 105.948 82.06C106.281 82.62 106.801 82.9 107.508 82.9C108.081 82.9 108.588 82.7267 109.028 82.38C109.468 82.0333 109.988 81.5133 110.588 80.82C110.748 80.6333 110.928 80.54 111.128 80.54ZM107.628 69.46C107.428 69.46 107.201 69.7133 106.948 70.22C106.708 70.7133 106.475 71.4067 106.248 72.3C106.035 73.18 105.855 74.16 105.708 75.24C106.495 74.56 107.081 73.8 107.468 72.96C107.868 72.1067 108.068 71.3333 108.068 70.64C108.068 69.8533 107.921 69.46 107.628 69.46ZM113.44 85.1C112.653 85.1 111.98 84.9067 111.42 84.52C110.873 84.12 110.46 83.6 110.18 82.96C109.9 82.32 109.76 81.6333 109.76 80.9C109.76 79.8867 109.946 78.9867 110.32 78.2C110.706 77.4 111.226 76.78 111.88 76.34C112.533 75.8867 113.266 75.66 114.08 75.66C114.866 75.66 115.54 75.86 116.1 76.26C116.66 76.6467 117.08 77.16 117.36 77.8C117.64 78.44 117.78 79.1267 117.78 79.86C117.78 80.8733 117.586 81.78 117.2 82.58C116.813 83.3667 116.286 83.9867 115.62 84.44C114.966 84.88 114.24 85.1 113.44 85.1ZM113.66 82.94C114.113 82.94 114.493 82.6933 114.8 82.2C115.12 81.7067 115.28 80.9867 115.28 80.04C115.28 79.3067 115.146 78.7533 114.88 78.38C114.613 78.0067 114.293 77.82 113.92 77.82C113.44 77.82 113.04 78.0667 112.72 78.56C112.413 79.04 112.26 79.76 112.26 80.72C112.26 81.48 112.393 82.04 112.66 82.4C112.926 82.76 113.26 82.94 113.66 82.94ZM134.315 78.92C134.355 78.9067 134.422 78.9 134.515 78.9C134.715 78.9 134.868 78.9667 134.975 79.1C135.082 79.2333 135.135 79.4133 135.135 79.64C135.135 80.0533 135.055 80.38 134.895 80.62C134.735 80.8467 134.495 81.0133 134.175 81.12C133.562 81.32 132.908 81.42 132.215 81.42C131.628 81.42 131.075 81.34 130.555 81.18C130.168 81.8067 129.742 82.4533 129.275 83.12C128.742 83.88 128.282 84.4 127.895 84.68C127.508 84.96 127.068 85.1 126.575 85.1C126.028 85.1 125.595 84.8867 125.275 84.46C124.968 84.0333 124.775 83.36 124.695 82.44C124.535 80.5733 124.455 78.94 124.455 77.54V76.84C124.468 76.4 124.588 76.0933 124.815 75.92C125.042 75.7467 125.382 75.66 125.835 75.66C126.182 75.66 126.435 75.74 126.595 75.9C126.768 76.0467 126.855 76.3 126.855 76.66C126.855 78.1933 126.948 80.1867 127.135 82.64C127.935 81.4533 128.535 80.5067 128.935 79.8C128.735 79.4133 128.635 78.9533 128.635 78.42C128.635 77.9667 128.735 77.5267 128.935 77.1C129.135 76.6733 129.408 76.3267 129.755 76.06C130.102 75.7933 130.495 75.66 130.935 75.66C131.322 75.66 131.635 75.8 131.875 76.08C132.115 76.3467 132.235 76.74 132.235 77.26C132.235 77.86 132.075 78.5467 131.755 79.32C132.262 79.2933 132.935 79.1933 133.775 79.02L134.315 78.92ZM143.599 78.86C143.773 78.86 143.906 78.9467 143.999 79.12C144.093 79.2933 144.139 79.5133 144.139 79.78C144.139 80.42 143.946 80.8 143.559 80.92C142.759 81.2 141.879 81.36 140.919 81.4C140.666 82.52 140.166 83.42 139.419 84.1C138.673 84.7667 137.826 85.1 136.879 85.1C136.079 85.1 135.393 84.9067 134.819 84.52C134.259 84.1333 133.833 83.62 133.539 82.98C133.246 82.34 133.099 81.6467 133.099 80.9C133.099 79.8867 133.293 78.9867 133.679 78.2C134.066 77.4 134.599 76.78 135.279 76.34C135.959 75.8867 136.713 75.66 137.539 75.66C138.553 75.66 139.366 76.0133 139.979 76.72C140.606 77.4133 140.973 78.2733 141.079 79.3C141.706 79.26 142.453 79.1267 143.319 78.9C143.426 78.8733 143.519 78.86 143.599 78.86ZM137.039 82.98C137.466 82.98 137.833 82.8067 138.139 82.46C138.459 82.1133 138.673 81.6133 138.779 80.96C138.366 80.68 138.046 80.3133 137.819 79.86C137.606 79.4067 137.499 78.9267 137.499 78.42C137.499 78.2067 137.519 77.9933 137.559 77.78H137.459C136.926 77.78 136.479 78.04 136.119 78.56C135.773 79.0667 135.599 79.7867 135.599 80.72C135.599 81.4533 135.739 82.0133 136.019 82.4C136.313 82.7867 136.653 82.98 137.039 82.98ZM151.851 80.54C152.024 80.54 152.157 80.62 152.251 80.78C152.357 80.94 152.411 81.16 152.411 81.44C152.411 81.9733 152.284 82.3867 152.031 82.68C151.457 83.3867 150.831 83.9667 150.151 84.42C149.471 84.8733 148.691 85.1 147.811 85.1C145.091 85.1 143.731 83.1867 143.731 79.36C143.731 78.7733 143.751 78.18 143.791 77.58H143.011C142.611 77.58 142.337 77.5067 142.191 77.36C142.057 77.2133 141.991 76.98 141.991 76.66C141.991 75.9133 142.291 75.54 142.891 75.54H144.031C144.257 74.0733 144.604 72.7333 145.071 71.52C145.537 70.3067 146.097 69.34 146.751 68.62C147.417 67.9 148.131 67.54 148.891 67.54C149.451 67.54 149.891 67.7867 150.211 68.28C150.531 68.7733 150.691 69.3933 150.691 70.14C150.691 72.2067 149.824 74.0067 148.091 75.54H150.331C150.544 75.54 150.697 75.5867 150.791 75.68C150.884 75.7733 150.931 75.9467 150.931 76.2C150.931 77.12 150.177 77.58 148.671 77.58H146.231C146.204 78.2467 146.191 78.7667 146.191 79.14C146.191 80.5267 146.351 81.5 146.671 82.06C147.004 82.62 147.524 82.9 148.231 82.9C148.804 82.9 149.311 82.7267 149.751 82.38C150.191 82.0333 150.711 81.5133 151.311 80.82C151.471 80.6333 151.651 80.54 151.851 80.54ZM148.351 69.46C148.151 69.46 147.924 69.7133 147.671 70.22C147.431 70.7133 147.197 71.4067 146.971 72.3C146.757 73.18 146.577 74.16 146.431 75.24C147.217 74.56 147.804 73.8 148.191 72.96C148.591 72.1067 148.791 71.3333 148.791 70.64C148.791 69.8533 148.644 69.46 148.351 69.46ZM157.942 81.14C158.116 81.14 158.249 81.22 158.342 81.38C158.449 81.54 158.502 81.76 158.502 82.04C158.502 82.52 158.389 82.9333 158.162 83.28C157.789 83.8533 157.296 84.3 156.682 84.62C156.082 84.94 155.362 85.1 154.522 85.1C153.242 85.1 152.249 84.72 151.542 83.96C150.836 83.1867 150.482 82.1467 150.482 80.84C150.482 79.92 150.676 79.0667 151.062 78.28C151.449 77.48 151.982 76.8467 152.662 76.38C153.356 75.9133 154.136 75.68 155.002 75.68C155.776 75.68 156.396 75.9133 156.862 76.38C157.329 76.8333 157.562 77.4533 157.562 78.24C157.562 79.16 157.229 79.9533 156.562 80.62C155.909 81.2733 154.789 81.7933 153.202 82.18C153.522 82.7933 154.062 83.1 154.822 83.1C155.369 83.1 155.816 82.9733 156.162 82.72C156.522 82.4667 156.936 82.04 157.402 81.44C157.562 81.24 157.742 81.14 157.942 81.14ZM154.662 77.64C154.169 77.64 153.749 77.9267 153.402 78.5C153.069 79.0733 152.902 79.7667 152.902 80.58V80.62C153.689 80.4333 154.309 80.1533 154.762 79.78C155.216 79.4067 155.442 78.9733 155.442 78.48C155.442 78.2267 155.369 78.0267 155.222 77.88C155.089 77.72 154.902 77.64 154.662 77.64ZM160.223 88.16C159.93 88.16 159.697 88.0933 159.523 87.96C159.35 87.8267 159.263 87.6133 159.263 87.32C159.263 87.2 159.283 87.06 159.323 86.9C159.47 86.2867 159.577 85.72 159.643 85.2C159.723 84.68 159.763 84.1 159.763 83.46C159.763 82.7933 159.917 82.28 160.223 81.92C160.543 81.56 160.95 81.38 161.443 81.38C161.923 81.38 162.283 81.5133 162.523 81.78C162.777 82.0333 162.903 82.38 162.903 82.82C162.903 83.2867 162.763 83.9067 162.483 84.68C162.203 85.4533 161.863 86.2067 161.463 86.94C161.197 87.4333 160.983 87.76 160.823 87.92C160.677 88.08 160.477 88.16 160.223 88.16ZM174.053 85.54C173.36 85.54 172.826 85.38 172.453 85.06C172.093 84.74 171.913 84.38 171.913 83.98C171.913 83.6333 172.04 83.3333 172.293 83.08C172.546 82.8267 172.92 82.7 173.413 82.7C173.586 82.7 173.786 82.72 174.013 82.76C174.253 82.7867 174.433 82.8067 174.553 82.82C174.54 82.4733 174.46 82.1467 174.313 81.84C174.18 81.5333 174.006 81.24 173.793 80.96C173.58 80.6667 173.38 80.4133 173.193 80.2C172.78 80.9867 172.366 81.64 171.953 82.16C171.553 82.68 171.113 83.1733 170.633 83.64C170.393 83.88 170.14 84 169.873 84C169.66 84 169.486 83.9267 169.353 83.78C169.22 83.62 169.153 83.4267 169.153 83.2C169.153 82.9333 169.246 82.6867 169.433 82.46L169.693 82.14C170.426 81.2333 170.98 80.4867 171.353 79.9C171.58 79.5133 171.846 79 172.153 78.36C172.46 77.7067 172.76 77.0333 173.053 76.34C173.306 75.7533 173.833 75.46 174.633 75.46C175.006 75.46 175.266 75.4933 175.413 75.56C175.56 75.6267 175.633 75.7333 175.633 75.88C175.633 75.96 175.606 76.0867 175.553 76.26C175.5 76.4333 175.426 76.6067 175.333 76.78C175.093 77.26 174.973 77.6667 174.973 78C174.973 78.2 175.04 78.42 175.173 78.66C175.32 78.9 175.54 79.2 175.833 79.56C176.26 80.12 176.58 80.6 176.793 81C177.02 81.3867 177.133 81.8133 177.133 82.28C177.133 82.4133 177.12 82.6 177.093 82.84C177.746 82.5867 178.513 81.9133 179.393 80.82C179.553 80.6333 179.733 80.54 179.933 80.54C180.106 80.54 180.24 80.62 180.333 80.78C180.44 80.94 180.493 81.16 180.493 81.44C180.493 81.9467 180.366 82.36 180.113 82.68C179.446 83.5067 178.806 84.0733 178.193 84.38C177.593 84.6733 176.846 84.8333 175.953 84.86C175.42 85.3133 174.786 85.54 174.053 85.54ZM193.984 78.92C194.024 78.9067 194.09 78.9 194.184 78.9C194.384 78.9 194.537 78.9667 194.644 79.1C194.75 79.2333 194.804 79.4133 194.804 79.64C194.804 80.0533 194.724 80.38 194.564 80.62C194.404 80.8467 194.164 81.0133 193.844 81.12C193.23 81.32 192.577 81.42 191.884 81.42C191.297 81.42 190.744 81.34 190.224 81.18C189.837 81.8067 189.41 82.4533 188.944 83.12C188.41 83.88 187.95 84.4 187.564 84.68C187.19 84.96 186.764 85.1 186.284 85.1C185.75 85.1 185.344 84.8933 185.064 84.48C184.797 84.0667 184.63 83.3867 184.564 82.44L184.464 80.98C184.05 82.1 183.677 82.9533 183.344 83.54C183.024 84.1267 182.697 84.5333 182.364 84.76C182.044 84.9867 181.664 85.1 181.224 85.1C180.677 85.1 180.244 84.8867 179.924 84.46C179.617 84.0333 179.424 83.36 179.344 82.44C179.184 80.5733 179.104 78.94 179.104 77.54V76.84C179.117 76.4 179.237 76.0933 179.464 75.92C179.69 75.7467 180.03 75.66 180.484 75.66C180.83 75.66 181.084 75.74 181.244 75.9C181.417 76.0467 181.504 76.3 181.504 76.66C181.504 78.1933 181.597 80.1867 181.784 82.64C182.69 80.7333 183.524 78.7467 184.284 76.68C184.43 76.28 184.604 76.0133 184.804 75.88C185.017 75.7333 185.27 75.66 185.564 75.66C185.924 75.66 186.17 75.7333 186.304 75.88C186.45 76.0267 186.524 76.2867 186.524 76.66C186.524 78.1933 186.617 80.1867 186.804 82.64C187.604 81.4533 188.204 80.5067 188.604 79.8C188.404 79.4133 188.304 78.9533 188.304 78.42C188.304 77.9667 188.404 77.5267 188.604 77.1C188.804 76.6733 189.077 76.3267 189.424 76.06C189.77 75.7933 190.164 75.66 190.604 75.66C190.99 75.66 191.304 75.8 191.544 76.08C191.784 76.3467 191.904 76.74 191.904 77.26C191.904 77.86 191.744 78.5467 191.424 79.32C191.93 79.2933 192.604 79.1933 193.444 79.02L193.984 78.92ZM201.987 80.54C202.161 80.54 202.294 80.62 202.387 80.78C202.494 80.94 202.547 81.16 202.547 81.44C202.547 81.9733 202.421 82.3867 202.167 82.68C201.674 83.28 200.974 83.8333 200.067 84.34C199.174 84.8467 198.214 85.1 197.187 85.1C195.787 85.1 194.701 84.72 193.927 83.96C193.154 83.2 192.767 82.16 192.767 80.84C192.767 79.92 192.961 79.0667 193.347 78.28C193.734 77.48 194.267 76.8467 194.947 76.38C195.641 75.9133 196.421 75.68 197.287 75.68C198.061 75.68 198.681 75.9133 199.147 76.38C199.614 76.8333 199.847 77.4533 199.847 78.24C199.847 79.16 199.514 79.9533 198.847 80.62C198.194 81.2733 197.081 81.7933 195.507 82.18C195.841 82.7933 196.474 83.1 197.407 83.1C198.007 83.1 198.687 82.8933 199.447 82.48C200.221 82.0533 200.887 81.5 201.447 80.82C201.607 80.6333 201.787 80.54 201.987 80.54ZM196.947 77.64C196.454 77.64 196.034 77.9267 195.687 78.5C195.354 79.0733 195.187 79.7667 195.187 80.58V80.62C195.974 80.4333 196.594 80.1533 197.047 79.78C197.501 79.4067 197.727 78.9733 197.727 78.48C197.727 78.2267 197.654 78.0267 197.507 77.88C197.374 77.72 197.187 77.64 196.947 77.64ZM209.839 80.54C210.012 80.54 210.146 80.62 210.239 80.78C210.346 80.94 210.399 81.16 210.399 81.44C210.399 81.9733 210.272 82.3867 210.019 82.68C209.526 83.28 208.826 83.8333 207.919 84.34C207.026 84.8467 206.066 85.1 205.039 85.1C203.639 85.1 202.552 84.72 201.779 83.96C201.006 83.2 200.619 82.16 200.619 80.84C200.619 79.92 200.812 79.0667 201.199 78.28C201.586 77.48 202.119 76.8467 202.799 76.38C203.492 75.9133 204.272 75.68 205.139 75.68C205.912 75.68 206.532 75.9133 206.999 76.38C207.466 76.8333 207.699 77.4533 207.699 78.24C207.699 79.16 207.366 79.9533 206.699 80.62C206.046 81.2733 204.932 81.7933 203.359 82.18C203.692 82.7933 204.326 83.1 205.259 83.1C205.859 83.1 206.539 82.8933 207.299 82.48C208.072 82.0533 208.739 81.5 209.299 80.82C209.459 80.6333 209.639 80.54 209.839 80.54ZM204.799 77.64C204.306 77.64 203.886 77.9267 203.539 78.5C203.206 79.0733 203.039 79.7667 203.039 80.58V80.62C203.826 80.4333 204.446 80.1533 204.899 79.78C205.352 79.4067 205.579 78.9733 205.579 78.48C205.579 78.2267 205.506 78.0267 205.359 77.88C205.226 77.72 205.039 77.64 204.799 77.64ZM217.691 80.54C217.864 80.54 217.997 80.62 218.091 80.78C218.197 80.94 218.251 81.16 218.251 81.44C218.251 81.9733 218.124 82.3867 217.871 82.68C217.297 83.3867 216.671 83.9667 215.991 84.42C215.311 84.8733 214.531 85.1 213.651 85.1C210.931 85.1 209.571 83.1867 209.571 79.36C209.571 78.7733 209.591 78.18 209.631 77.58H208.851C208.451 77.58 208.177 77.5067 208.031 77.36C207.897 77.2133 207.831 76.98 207.831 76.66C207.831 75.9133 208.131 75.54 208.731 75.54H209.871C210.097 74.0733 210.444 72.7333 210.911 71.52C211.377 70.3067 211.937 69.34 212.591 68.62C213.257 67.9 213.971 67.54 214.731 67.54C215.291 67.54 215.731 67.7867 216.051 68.28C216.371 68.7733 216.531 69.3933 216.531 70.14C216.531 72.2067 215.664 74.0067 213.931 75.54H216.171C216.384 75.54 216.537 75.5867 216.631 75.68C216.724 75.7733 216.771 75.9467 216.771 76.2C216.771 77.12 216.017 77.58 214.511 77.58H212.071C212.044 78.2467 212.031 78.7667 212.031 79.14C212.031 80.5267 212.191 81.5 212.511 82.06C212.844 82.62 213.364 82.9 214.071 82.9C214.644 82.9 215.151 82.7267 215.591 82.38C216.031 82.0333 216.551 81.5133 217.151 80.82C217.311 80.6333 217.491 80.54 217.691 80.54ZM214.191 69.46C213.991 69.46 213.764 69.7133 213.511 70.22C213.271 70.7133 213.037 71.4067 212.811 72.3C212.597 73.18 212.417 74.16 212.271 75.24C213.057 74.56 213.644 73.8 214.031 72.96C214.431 72.1067 214.631 71.3333 214.631 70.64C214.631 69.8533 214.484 69.46 214.191 69.46ZM219.242 74.36C218.682 74.36 218.262 74.2333 217.982 73.98C217.702 73.7133 217.562 73.3467 217.562 72.88C217.562 72.4133 217.742 72.0267 218.102 71.72C218.475 71.4 218.935 71.24 219.482 71.24C219.975 71.24 220.375 71.36 220.682 71.6C220.989 71.84 221.142 72.18 221.142 72.62C221.142 73.1533 220.969 73.58 220.622 73.9C220.275 74.2067 219.815 74.36 219.242 74.36ZM219.082 85.1C218.215 85.1 217.582 84.7933 217.182 84.18C216.795 83.5667 216.602 82.7533 216.602 81.74C216.602 81.14 216.675 80.3733 216.822 79.44C216.982 78.4933 217.182 77.6133 217.422 76.8C217.542 76.3733 217.702 76.08 217.902 75.92C218.102 75.76 218.422 75.68 218.862 75.68C219.542 75.68 219.882 75.9067 219.882 76.36C219.882 76.6933 219.755 77.4667 219.502 78.68C219.182 80.1467 219.022 81.14 219.022 81.66C219.022 82.06 219.075 82.3667 219.182 82.58C219.289 82.7933 219.469 82.9 219.722 82.9C219.962 82.9 220.262 82.7333 220.622 82.4C220.982 82.0667 221.462 81.54 222.062 80.82C222.222 80.6333 222.402 80.54 222.602 80.54C222.775 80.54 222.909 80.62 223.002 80.78C223.109 80.94 223.162 81.16 223.162 81.44C223.162 81.9733 223.035 82.3867 222.782 82.68C221.462 84.2933 220.229 85.1 219.082 85.1ZM228.704 81.14C228.877 81.14 229.011 81.22 229.104 81.38C229.211 81.54 229.264 81.76 229.264 82.04C229.264 82.52 229.151 82.9333 228.924 83.28C228.551 83.8533 228.057 84.3 227.444 84.62C226.844 84.94 226.124 85.1 225.284 85.1C224.004 85.1 223.011 84.72 222.304 83.96C221.597 83.1867 221.244 82.1467 221.244 80.84C221.244 79.92 221.437 79.0667 221.824 78.28C222.211 77.48 222.744 76.8467 223.424 76.38C224.117 75.9133 224.897 75.68 225.764 75.68C226.537 75.68 227.157 75.9133 227.624 76.38C228.091 76.8333 228.324 77.4533 228.324 78.24C228.324 79.16 227.991 79.9533 227.324 80.62C226.671 81.2733 225.551 81.7933 223.964 82.18C224.284 82.7933 224.824 83.1 225.584 83.1C226.131 83.1 226.577 82.9733 226.924 82.72C227.284 82.4667 227.697 82.04 228.164 81.44C228.324 81.24 228.504 81.14 228.704 81.14ZM225.424 77.64C224.931 77.64 224.511 77.9267 224.164 78.5C223.831 79.0733 223.664 79.7667 223.664 80.58V80.62C224.451 80.4333 225.071 80.1533 225.524 79.78C225.977 79.4067 226.204 78.9733 226.204 78.48C226.204 78.2267 226.131 78.0267 225.984 77.88C225.851 77.72 225.664 77.64 225.424 77.64ZM232.905 80.32C232.638 80.32 232.418 80.26 232.245 80.14C232.072 80.02 231.985 79.8333 231.985 79.58L232.005 79.42C232.232 77.9267 232.538 76.2267 232.925 74.32C233.312 72.4133 233.672 70.7667 234.005 69.38C234.218 68.5267 234.798 68.1 235.745 68.1C236.598 68.1 237.025 68.3733 237.025 68.92C237.025 69.04 237.005 69.1733 236.965 69.32C236.618 70.7333 236.158 72.4467 235.585 74.46C235.012 76.46 234.465 78.2 233.945 79.68C233.798 80.1067 233.452 80.32 232.905 80.32ZM232.145 85.1C231.558 85.1 231.112 84.94 230.805 84.62C230.512 84.3 230.365 83.88 230.365 83.36C230.365 82.76 230.532 82.28 230.865 81.92C231.212 81.56 231.692 81.38 232.305 81.38C232.892 81.38 233.332 81.5267 233.625 81.82C233.932 82.1 234.085 82.52 234.085 83.08C234.085 83.6933 233.912 84.1867 233.565 84.56C233.218 84.92 232.745 85.1 232.145 85.1Z" fill="black"/>
<defs>
<filter id="filter0_d" x="297" y="14" width="143" height="152.315" filterUnits="userSpaceOnUse" color-interpolation-filters="sRGB">
<feFlood flood-opacity="0" result="BackgroundImageFix"/>
<feColorMatrix in="SourceAlpha" type="matrix" values="0 0 0 0 0 0 0 0 0 0 0 0 0 0 0 0 0 0 127 0"/>
<feOffset dx="1" dy="1"/>
<feGaussianBlur stdDeviation="0.5"/>
<feColorMatrix type="matrix" values="0 0 0 0 0 0 0 0 0 0 0 0 0 0 0 0 0 0 1 0"/>
<feBlend mode="normal" in2="BackgroundImageFix" result="effect1_dropShadow"/>
<feBlend mode="normal" in="SourceGraphic" in2="effect1_dropShadow" result="shape"/>
</filter>
</defs>
</svg>
