<svg width="68" height="30" viewBox="0 0 68 30" fill="none" xmlns="http://www.w3.org/2000/svg">
<path d="M46 6C46 9.31371 39.2843 10 31 10C22.7157 10 16 9.31371 16 6C16 2.68629 22.7157 0 31 0C39.2843 0 46 2.68629 46 6Z" fill="#595858"/>
<path d="M68 16C68 19.3137 61.2843 20 53 20C44.7157 20 38 19.3137 38 16C38 12.6863 44.7157 10 53 10C61.2843 10 68 12.6863 68 16Z" fill="#595858"/>
<path d="M30 26C30 29.3137 23.2843 30 15 30C6.71573 30 0 29.3137 0 26C0 22.6863 6.71573 20 15 20C23.2843 20 30 22.6863 30 26Z" fill="#595858"/>
</svg>
